<svg width="50" height="64" viewBox="0 0 50 64" fill="none" xmlns="http://www.w3.org/2000/svg">
<path d="M63.8136 41.922C63.5888 41.7899 63.3443 41.694 63.0898 41.6312C63.7409 39.9591 64.2663 38.244 64.6595 36.5124C64.8512 35.6698 64.6595 34.8072 64.1275 34.1463C63.6351 33.5284 62.8883 33.1417 62.0985 33.0756C62.7164 30.3692 62.9676 27.7321 62.8453 25.1942C62.5842 19.9234 60.6345 14.7451 57.3597 10.6077C54.2369 6.66206 50.2482 4.19024 46.1307 3.65159C45.5557 3.57558 44.9675 3.53922 44.3793 3.53922C43.758 3.53922 43.1334 3.58218 42.5089 3.6648C41.154 1.41768 38.7152 0 35.9955 0C33.603 0 31.3526 1.14009 29.925 3.02702C22.298 3.42687 21.8056 5.28735 21.5908 6.10028C21.4289 6.71824 21.4091 7.28662 21.4685 7.78892C21.3826 7.86823 21.3 7.95416 21.2207 8.05C20.616 8.76379 20.378 9.72211 20.5499 10.7531C20.7184 11.761 21.3331 12.7425 22.027 13.572C21.9378 13.7207 21.8585 13.8793 21.7858 14.0478C21.5082 14.712 21.4223 15.4787 21.5247 16.328C21.6272 17.1508 21.8783 17.8184 22.2947 18.3702C22.7375 18.9584 23.3555 19.4013 24.1387 19.6887C24.37 20.3662 24.8029 21.0866 25.6687 21.5658C25.0276 22.1573 24.3006 22.729 23.4876 23.2808C23.5537 22.9504 23.5868 22.61 23.5868 22.263C23.5868 19.3418 21.2108 16.9658 18.2895 16.9658C15.3683 16.9658 12.9923 19.3418 12.9923 22.263C12.9923 24.4242 14.2943 26.2814 16.1515 27.1042C14.4826 27.8874 12.7874 28.7169 11.1714 29.7182C9.79013 30.5741 8.47491 31.5489 7.2489 32.6295C6.93166 32.5767 6.6078 32.5502 6.28065 32.5502C3.15451 32.5502 0.613281 35.0253 0.613281 38.0689C0.613281 38.9743 0.841305 39.8567 1.2709 40.6465C1.20811 40.8381 1.15524 41.0298 1.10567 41.2182C0.702512 42.8407 0.70912 44.6252 1.1255 46.6674C1.68067 49.3739 2.83727 51.9415 4.56227 54.3043C5.96011 56.2177 7.67849 57.9129 9.65794 59.3405C11.5944 60.7417 13.7127 61.8388 15.9466 62.5922C16.6207 62.8203 17.3312 63.0284 18.0516 63.2069C20.193 63.7323 22.4533 64 24.7698 64C27.7671 64 30.8404 63.5605 33.8905 62.698C34.0095 62.6649 34.1284 62.6286 34.221 62.6021C35.3445 62.275 36.4681 61.8884 37.5619 61.4488C40.0469 60.4608 42.456 59.1984 44.7196 57.7015C45.3739 57.2719 46.0084 56.8158 46.6363 56.3499C47.251 58.5937 49.3031 60.2493 51.7419 60.2493C54.6631 60.2493 57.0391 57.8733 57.0391 54.952C57.0391 54.6348 57.0061 54.3275 56.9532 54.0234C57.3267 54.2019 57.7364 54.3043 58.1561 54.3043C58.8831 54.3043 59.5771 54.0102 60.1091 53.4782C62.4983 51.089 63.84 48.0256 64.9206 45.567C65.5253 44.189 65.0594 42.6589 63.8103 41.9286L63.8136 41.922Z" fill="white"/>
<path d="M58.9547 36.9044C58.0658 39.2969 56.9323 41.5936 55.5874 43.7614C55.1512 44.4653 52.1605 42.8329 51.6813 43.507C51.0733 44.3596 52.9635 47.5089 52.2927 48.3119C49.8275 51.2596 46.9359 53.8504 43.7338 55.962C41.5957 57.3764 40.6506 53.8636 38.268 54.8087C37.237 55.2218 35.8821 55.1722 34.8081 55.4828C34.709 55.5126 33.3904 55.6249 33.288 55.6514C28.4435 57.0228 23.47 62.3861 18.6255 61.1965C17.9745 61.0378 17.3235 60.8495 16.6824 60.6314C14.6336 59.9407 12.6773 58.9262 10.9192 57.6506C10.0402 57.0161 11.0646 52.1452 10.2947 51.3917C9.49825 50.6119 6.91405 53.9429 6.25974 53.0506C4.76607 51.0018 3.67886 48.682 3.16334 46.1837C2.85602 44.6801 2.75358 43.1038 3.12369 41.6135C3.54007 39.9513 4.52153 38.4873 5.61204 37.1688C7.50557 34.8721 9.77583 32.886 12.3071 31.3197C15.6613 29.2411 19.4285 27.9159 22.8587 25.9728C25.3768 24.5486 27.8784 22.6451 29.4613 20.1667C29.5571 20.0147 29.6529 19.8659 29.7389 19.7106C29.8083 19.595 29.871 19.4793 29.9338 19.3603C29.9503 19.3339 29.9603 19.3075 29.9768 19.2777C30.1156 19.0134 30.2411 18.7424 30.3535 18.4681C30.4328 18.2864 30.5022 18.1046 30.5683 17.9196C31.1565 16.2573 31.7282 14.6777 32.4717 13.2105C32.6337 12.8767 32.8121 12.5496 32.9972 12.2323C33.4334 11.4822 33.9291 10.7717 34.5173 10.0943C34.9932 9.53912 35.5318 9.01038 36.1432 8.50478C36.4505 8.25033 36.771 8.0124 37.1015 7.78769C37.2238 7.70177 37.3526 7.62246 37.4782 7.53984C38.4398 6.9285 39.4775 6.4361 40.5581 6.08251C40.8522 5.98668 41.1496 5.90077 41.4503 5.82476C42.9242 5.45465 44.4542 5.34558 45.9644 5.54055C49.9365 6.05937 53.4096 8.62043 55.8947 11.7598C58.9184 15.5766 60.7128 20.3517 60.954 25.2161C61.149 29.1915 60.3361 33.1735 58.9481 36.9044H58.9547Z" fill="#F2CD5F"/>
<path d="M34.8967 18.3248C38.22 16.9672 39.8136 13.1726 38.456 9.84925C37.0984 6.52592 33.3038 4.93235 29.9804 6.28993C26.6571 7.64751 25.0636 11.4422 26.4211 14.7655C27.7787 18.0888 31.5733 19.6824 34.8967 18.3248Z" fill="#FE96CA"/>
<path d="M26.2919 10.1959C26.2919 10.1959 25.3667 12.0068 25.674 15.285C25.9813 18.5598 25.8293 19.5248 27.1016 19.9114C28.3738 20.2981 36.0834 20.4897 37.0847 19.4884C38.086 18.4871 39.3219 13.669 38.7436 11.4715C38.1653 9.27394 26.2919 10.1992 26.2919 10.1992V10.1959Z" fill="#FE96CA"/>
<path d="M29.7365 19.3857V23.1365L34.2076 23.034V18.9727L29.7365 19.3857Z" fill="#FE96CA"/>
<path d="M23.7056 14.732C23.5404 15.1285 23.5305 15.5779 23.5833 16.0042C23.6329 16.3909 23.7353 16.7841 23.97 17.0981C24.2145 17.4219 24.5846 17.6334 24.968 17.7689C25.2224 17.8581 25.5 17.9176 25.7644 17.8581C26.835 17.6202 26.9573 15.7927 26.5079 14.9831C25.9362 13.9521 24.2608 13.3969 23.7023 14.732H23.7056Z" fill="#FE96CA"/>
<path d="M39.9426 14.732C40.1078 15.1285 40.1177 15.5779 40.0649 16.0042C40.0153 16.3909 39.9129 16.7841 39.6782 17.0981C39.4337 17.4219 39.0636 17.6334 38.6802 17.7689C38.4258 17.8581 38.1482 17.9176 37.8838 17.8581C36.8132 17.6202 36.6909 15.7927 37.1403 14.9831C37.712 13.9521 39.3874 13.3969 39.9459 14.732H39.9426Z" fill="#FE96CA"/>
<path d="M37.836 18.5536C38.6159 17.0269 39.7097 10.9663 39.7097 10.9663C39.7494 8.88437 37.5518 8.1904 37.5518 8.1904C37.5518 8.1904 37.6278 5.25924 34.3133 4.95191C30.9988 4.64458 23.9435 5.22289 23.5966 6.53151C23.2496 7.84343 24.0592 8.76871 24.0592 8.76871C24.0592 8.76871 22.3243 8.72906 22.5953 10.3483C22.8662 11.9676 25.5264 14.0098 25.5264 14.0098C25.7379 14.8095 25.7313 15.6059 25.6851 16.432C25.6553 16.9343 25.6223 17.4631 25.8437 17.9158C26.1642 18.5701 27.0432 18.8841 27.7075 18.58C27.876 19.003 28.2659 19.2839 28.6955 19.426C29.1284 19.5681 29.6208 19.5086 30.0075 19.2674C30.3181 19.5979 30.8171 19.7333 31.2698 19.7366C31.7225 19.7399 32.172 19.5516 32.4859 19.231C32.78 19.5681 33.279 19.6904 33.7251 19.6871C34.1712 19.6871 34.6141 19.4789 34.9049 19.1418C35.3113 19.4954 35.9194 19.5912 36.4547 19.5251C36.9867 19.459 37.5915 19.0361 37.836 18.5569V18.5536Z" fill="#A36789"/>
<path d="M39.4246 12.4147C41.6224 10.2169 41.6224 6.65366 39.4246 4.4559C37.2269 2.25814 33.6636 2.25815 31.4658 4.45591C29.2681 6.65367 29.2681 10.2169 31.4658 12.4147C33.6636 14.6125 37.2269 14.6125 39.4246 12.4147Z" fill="black"/>
<path d="M36.0849 13.1675C39.193 13.1675 41.7126 10.6479 41.7126 7.53984C41.7126 4.43173 39.193 1.91211 36.0849 1.91211C32.9768 1.91211 30.4572 4.43173 30.4572 7.53984C30.4572 10.6479 32.9768 13.1675 36.0849 13.1675Z" fill="#A36789"/>
<path d="M17.0685 42.6891L16.4637 44.1596L16.0209 45.2336L15.9813 45.3295L15.9449 45.4187L14.5801 48.7431L12.9576 52.6855L11.877 55.3093L10.9153 57.6556C9.12755 56.3668 7.54134 54.8103 6.25586 53.0523L11.7415 39.7447L12.214 38.6013L17.0685 42.6858V42.6891Z" fill="#FE96CA"/>
<path d="M24.824 51.8949C24.824 51.9676 24.824 52.0403 24.824 52.113C24.7744 53.7158 24.1796 55.1863 23.2147 56.3363C22.9536 56.6469 22.6661 56.9377 22.3588 57.1955C22.3423 57.212 22.3224 57.2252 22.3026 57.2418C22.22 57.3078 22.1374 57.3706 22.0515 57.4301C20.9114 58.2893 19.497 58.8048 17.9604 58.8181H17.9075C17.5903 58.8181 17.2763 58.7982 16.969 58.7553C16.0305 58.6297 15.1515 58.3124 14.3683 57.8465C13.8594 57.5458 13.3901 57.1757 12.9771 56.756C12.9242 56.7031 12.8746 56.6502 12.825 56.5974C12.0319 55.7415 11.4536 54.684 11.1727 53.5109C11.0901 53.1738 11.0373 52.8268 11.0075 52.4732C10.991 52.2816 10.9844 52.0899 10.9844 51.8949C10.9844 50.3583 11.4867 48.9373 12.3327 47.7906C12.7887 47.1727 13.3439 46.6307 13.975 46.1978C14.2658 45.9962 14.5699 45.8178 14.8937 45.6625C15.1151 45.5534 15.3431 45.4576 15.5745 45.3717C16.3015 45.1106 17.088 44.9685 17.9009 44.9685C19.388 44.9685 20.766 45.4378 21.8961 46.2408C23.1486 47.1264 24.0937 48.4185 24.5398 49.9254C24.7249 50.55 24.824 51.2109 24.824 51.8949Z" fill="white"/>
<path d="M12.1869 51.822C12.1869 51.822 12.405 49.8557 12.9205 49.1419C12.9205 49.1419 14.0705 48.6066 15.4419 48.7454L16.1359 51.4651L13.9912 53.4511C13.9912 53.4511 12.6628 52.6382 12.1836 51.822H12.1869Z" fill="black"/>
<path d="M19.2142 52.3953L19.8091 55.2141C19.8091 55.2141 21.2796 55.4917 22.2908 54.9563C22.2908 54.9563 23.1434 53.5254 23.1831 52.197C23.1831 52.197 22.0925 50.8091 21.2763 50.5876C21.2763 50.5876 19.5678 51.7971 19.2109 52.3953H19.2142Z" fill="black"/>
<path d="M18.0813 58.392C18.0813 58.392 17.5195 58.6134 16.9577 58.7555C16.0192 58.6299 15.1402 58.3127 14.3603 57.8468L13.7754 57.0603L14.7469 56.1482C14.7469 56.1482 15.203 56.5844 16.1183 56.862C17.0304 57.1396 17.5658 57.1396 17.5658 57.1396L18.0813 58.392Z" fill="black"/>
<path d="M17.7453 46.7975C17.7453 46.7975 19.2555 46.9164 20.6037 47.7492L21.8132 46.9561C21.8132 46.9561 21.6546 46.0638 20.1047 45.6078C18.5549 45.1518 17.3652 45.5681 17.3652 45.5681L17.742 46.7975H17.7453Z" fill="black"/>
<path d="M24.824 51.8951C24.824 51.9678 24.824 52.0405 24.824 52.1132L24.4208 51.2672V51.2606L24.4142 51.1119L24.3613 50.0346L24.4406 49.9883L24.5431 49.9255C24.7281 50.5501 24.8273 51.211 24.8273 51.8951H24.824Z" fill="black"/>
<path d="M23.2114 56.337C22.9503 56.6477 22.6628 56.9385 22.3555 57.1962L22.3654 57.1797L22.5108 56.9385L22.8082 56.4395L22.828 56.4031L22.8743 56.3932L23.2114 56.3337V56.337Z" fill="black"/>
<path d="M13.9705 46.197L12.9626 47.5519L12.3281 47.7898C12.7842 47.1719 13.3393 46.6332 13.9705 46.197Z" fill="black"/>
<path d="M11.2762 52.8122C11.2762 52.8122 11.2234 53.146 11.1672 53.5062C11.0879 53.1691 11.0317 52.8254 11.002 52.4685L11.2762 52.8122Z" fill="black"/>
<path d="M15.4408 48.7891C15.4408 48.7891 15.4209 48.7891 15.4143 48.7792C15.3945 48.766 15.3912 48.7362 15.4044 48.7164C15.4143 48.7032 16.4586 47.3318 17.863 46.6775C17.8862 46.6676 17.9093 46.6775 17.9225 46.6973C17.9324 46.7204 17.9225 46.7469 17.9027 46.7568C16.5214 47.4012 15.487 48.756 15.4771 48.7693C15.4672 48.7792 15.454 48.7858 15.4408 48.7858V48.7891Z" fill="black"/>
<path d="M21.321 51.0923C21.321 51.0923 21.321 51.0923 21.3177 51.0923C21.2946 51.0923 21.2747 51.0691 21.278 51.0427C21.278 51.0361 21.3375 50.4611 21.2384 49.5622C21.1426 48.67 20.4783 47.5663 20.4717 47.5563C20.4585 47.5365 20.4651 47.5101 20.4849 47.4969C20.5048 47.4837 20.5312 47.4903 20.5444 47.5101C20.551 47.52 21.2252 48.6402 21.3243 49.5523C21.4234 50.4611 21.364 51.046 21.364 51.0493C21.364 51.0724 21.3441 51.089 21.321 51.089V51.0923Z" fill="black"/>
<path d="M23.186 52.2426C23.1662 52.2426 23.1464 52.2293 23.1431 52.2062C23.1398 52.1831 23.153 52.1599 23.1761 52.1533C23.1827 52.1533 23.8602 52.0046 24.4385 51.0628C24.4517 51.043 24.4781 51.0364 24.498 51.0496C24.5178 51.0628 24.5244 51.0893 24.5112 51.1091C23.9131 52.0872 23.2224 52.2359 23.1926 52.2392C23.1926 52.2392 23.186 52.2392 23.1827 52.2392L23.186 52.2426Z" fill="black"/>
<path d="M24.4175 50.1066C24.3976 50.1066 24.3811 50.0934 24.3745 50.0768C23.6177 47.7834 21.7011 47.0036 21.6813 46.997C21.6581 46.987 21.6482 46.9639 21.6581 46.9408C21.668 46.9176 21.6912 46.9077 21.7143 46.9176C21.7341 46.9243 23.6871 47.7174 24.4604 50.0504C24.467 50.0735 24.4571 50.0967 24.434 50.1066C24.4307 50.1066 24.4241 50.1066 24.4208 50.1066H24.4175Z" fill="black"/>
<path d="M19.334 52.4375C19.334 52.4375 19.3307 52.4375 19.3274 52.4375C18.4715 52.3086 17.3116 51.9716 16.0592 51.4825C16.0295 51.4693 16.0096 51.4627 16.0063 51.4627C15.9832 51.456 15.97 51.4296 15.9799 51.4065C15.9865 51.3833 16.0129 51.3701 16.0361 51.38C16.0427 51.38 16.0625 51.39 16.0955 51.4032C17.3447 51.8856 18.498 52.2227 19.344 52.3516C19.3671 52.3549 19.3836 52.378 19.3803 52.4011C19.3803 52.4243 19.3572 52.4375 19.3374 52.4375H19.334Z" fill="black"/>
<path d="M12.9212 49.4242C12.9014 49.4242 12.8816 49.4077 12.8783 49.3879C12.68 48.2808 12.9344 47.3126 12.9377 47.3027C12.9443 47.2795 12.9675 47.2663 12.9906 47.2729C13.0137 47.2796 13.027 47.3027 13.0204 47.3258C13.0204 47.3357 12.7659 48.2841 12.9609 49.3713C12.9642 49.3945 12.951 49.4176 12.9245 49.4209H12.9179L12.9212 49.4242Z" fill="black"/>
<path d="M11.1765 52.9156C11.1765 52.9156 11.1633 52.9156 11.1534 52.909C11.1336 52.8958 11.1237 52.8694 11.1369 52.8495C11.1402 52.8429 11.5268 52.1787 12.3199 51.6434C12.3397 51.6301 12.3662 51.6367 12.3794 51.6566C12.3926 51.6764 12.386 51.7028 12.3662 51.7161C11.5896 52.2415 11.2129 52.8859 11.2096 52.8925C11.203 52.9057 11.1864 52.9156 11.1732 52.9156H11.1765Z" fill="black"/>
<path d="M14.8481 56.388C14.8481 56.388 14.8216 56.3814 14.8117 56.3682C13.9393 55.1191 13.9492 53.1661 13.9492 53.1462C13.9492 53.1231 13.9691 53.1033 13.9922 53.1033C14.0153 53.1033 14.0351 53.1231 14.0351 53.1462C14.0351 53.1661 14.0252 55.0926 14.8811 56.3153C14.8943 56.3352 14.891 56.3616 14.8712 56.3748C14.8646 56.3814 14.8547 56.3814 14.8448 56.3814L14.8481 56.388Z" fill="black"/>
<path d="M17.4493 57.2065C17.4294 57.2065 17.4129 57.1933 17.4063 57.1767C17.3997 57.1536 17.4096 57.1305 17.4327 57.1206C17.4493 57.114 18.9958 56.5918 19.8715 55.075C19.8847 55.0552 19.9112 55.0453 19.931 55.0585C19.9508 55.0717 19.9575 55.0982 19.9475 55.118C19.0553 56.6645 17.479 57.1966 17.4625 57.2032C17.4592 57.2032 17.4526 57.2032 17.4493 57.2032V57.2065Z" fill="black"/>
<path d="M18.5075 58.4671C18.1374 58.4671 17.9028 58.4373 17.8961 58.4373C17.873 58.434 17.8565 58.4109 17.8598 58.3878C17.8631 58.3646 17.8862 58.3481 17.9094 58.3514C17.9358 58.3547 20.6224 58.705 22.4895 56.9536C22.506 56.937 22.5358 56.937 22.5523 56.9536C22.5688 56.9701 22.5688 56.9998 22.5523 57.0163C21.2007 58.282 19.4295 58.4671 18.5108 58.4671H18.5075Z" fill="black"/>
<path d="M22.8283 56.4467C22.8085 56.4467 22.7887 56.4302 22.7854 56.4103C22.5937 55.0257 22.098 54.7184 22.0914 54.7151C22.0716 54.7019 22.065 54.6754 22.0749 54.6556C22.0881 54.6358 22.1145 54.6292 22.1343 54.6391C22.1575 54.6523 22.673 54.9629 22.8713 56.3971C22.8713 56.4203 22.8581 56.4434 22.8349 56.4467C22.8349 56.4467 22.8316 56.4467 22.8283 56.4467Z" fill="black"/>
<path d="M14.2182 57.0878C14.2149 57.1077 14.195 57.1242 14.1752 57.1242C14.1719 57.1242 14.1686 57.1242 14.1686 57.1242C14.1653 57.1242 14.0265 57.0978 13.8051 57.035C13.5903 56.9755 13.2929 56.883 12.9723 56.7541C12.9194 56.7012 12.8699 56.6516 12.8203 56.5955C13.2367 56.7772 13.6266 56.8962 13.8778 56.9656C14.0628 57.0151 14.1785 57.0383 14.1818 57.0383C14.2049 57.0416 14.2215 57.0647 14.2148 57.0911L14.2182 57.0878Z" fill="black"/>
<path d="M17.7254 45.6999C17.7121 45.7198 17.6857 45.7264 17.6659 45.7165C17.6659 45.7165 17.57 45.6636 17.3817 45.6041C17.1239 45.5215 16.6877 45.4224 16.0698 45.4158C15.6732 45.4125 15.2568 45.5215 14.8867 45.6636C15.1081 45.5545 15.3361 45.4587 15.5708 45.3761C15.7294 45.3464 15.8913 45.3298 16.0499 45.3298H16.0698C16.7505 45.3364 17.2131 45.4521 17.4676 45.5413C17.6196 45.5942 17.6989 45.6372 17.7055 45.6438C17.7254 45.657 17.732 45.6834 17.7221 45.7033L17.7254 45.6999Z" fill="black"/>
<path opacity="0.19" d="M24.8226 51.8961C24.8226 51.9688 24.8226 52.0415 24.8226 52.1142C24.773 53.7169 24.1782 55.1875 23.2133 56.3375C22.9522 56.6481 22.6647 56.9389 22.3574 57.1966C22.3409 57.2132 22.321 57.2264 22.3012 57.2429C22.2186 57.309 22.136 57.3718 22.0501 57.4313C20.91 58.2905 19.4956 58.806 17.959 58.8192C18.0218 58.6969 18.0879 58.5813 18.1506 58.459C18.1672 58.4293 18.1804 58.4028 18.1969 58.3731C18.6166 57.5734 19.0065 56.7538 19.3601 55.9244C19.3998 55.8352 19.4394 55.7493 19.4725 55.6633C19.5749 55.4254 19.6708 55.1875 19.7633 54.9462C20.3052 53.5682 20.758 52.1572 21.1116 50.7197C21.171 50.4784 21.2305 50.2306 21.2867 49.986C21.3065 49.8902 21.3297 49.7944 21.3495 49.6952C21.5379 48.8228 21.6899 47.9405 21.8055 47.0516C21.8121 47.0218 21.8154 46.9954 21.8187 46.9623V46.9557C21.8187 46.9557 21.8187 46.9392 21.8187 46.9359C21.8485 46.7046 21.8749 46.4733 21.9047 46.2419C23.1571 47.1276 24.1022 48.4197 24.5483 49.9265C24.7334 50.5511 24.8325 51.212 24.8325 51.8961H24.8226Z" fill="black"/>
<path d="M55.5836 43.7641C54.5956 45.3569 53.4918 46.877 52.2857 48.3145L47.028 42.7066L45.9441 41.55L45.7393 41.3319L43.9746 39.4516L47.5204 34.7458L50.0584 37.5845L50.2599 37.8125L51.3042 38.9823L55.5836 43.7641Z" fill="#FE96CA"/>
<path d="M43.728 55.9684C41.5899 57.3827 39.3098 58.579 36.9272 59.5274C35.8961 59.9405 34.8387 60.3073 33.7647 60.6179C33.6655 60.6477 33.5664 60.6774 33.4673 60.7072C28.6227 62.0786 23.4676 62.3958 18.623 61.2061L19.6673 58.5988L19.7598 58.3675L19.7962 58.2716L20.9924 55.2909L22.5192 51.4708L23.646 48.6553L23.6857 48.5595L23.798 48.2819L24.34 46.9237L24.3929 46.7849H40.1194L40.1723 46.9237L43.7247 55.975L43.728 55.9684Z" fill="white"/>
<path d="M32.916 59.896C31.1844 59.896 29.7932 59.6779 29.7701 59.6746C29.6875 59.6614 29.6313 59.5854 29.6445 59.5028C29.6577 59.4202 29.7337 59.364 29.8163 59.3772C29.856 59.3838 33.6728 59.9787 36.485 59.1756C36.5643 59.1525 36.6502 59.1988 36.6701 59.2781C36.6932 59.3574 36.6469 59.4433 36.5676 59.4631C35.4077 59.7936 34.0859 59.8927 32.916 59.8927V59.896Z" fill="black"/>
<path d="M33.7645 60.6188C33.6654 60.6486 33.5662 60.6783 33.4671 60.7081L33.4473 59.8852V59.7332C33.4473 59.6605 33.4968 59.5977 33.5629 59.5779C33.5728 59.5779 33.5828 59.5779 33.5927 59.5779H33.6092C33.6786 59.5845 33.748 59.6506 33.748 59.7266V59.8786L33.7678 60.6221L33.7645 60.6188Z" fill="black"/>
<path d="M52.5374 37.9139L45.9051 43.697L41.5496 40.0553L40.1253 46.7802H24.3988L23.0671 39.7414L17.5352 45.1609L10.5195 38.6079C10.6253 38.4857 10.7343 38.37 10.8434 38.2477C11.924 37.0481 13.0046 35.8486 14.0852 34.6457C15.5194 33.0529 16.9536 31.4634 18.3878 29.8673C18.9198 29.2791 19.4518 28.6875 19.9839 28.096C21.0446 26.9196 22.5615 26.1893 23.9229 25.4193C25.0928 24.7584 26.2758 24.1173 27.4556 23.4729C27.7695 23.301 28.0867 23.1292 28.4007 22.9574C28.4007 22.9574 29.7126 21.4935 32.1778 21.3381C34.4315 21.196 35.912 22.921 36.1532 23.2184C36.1731 23.2482 36.1863 23.2647 36.1863 23.2647L44.147 27.4748L44.5899 27.9143L52.5308 37.9106L52.5374 37.9139Z" fill="#9164B1"/>
<path d="M36.1585 23.2184C35.1407 23.1722 33.4586 23.1094 32.0674 23.1094C30.2367 23.1094 28.0755 23.387 27.4608 23.4729C27.7748 23.301 28.092 23.1292 28.4059 22.9574C28.4059 22.9574 29.7179 21.4935 32.1831 21.3381C34.4368 21.196 35.9173 22.921 36.1585 23.2184Z" fill="white"/>
<path d="M24.3984 46.9279C24.3257 46.9279 24.2629 46.8784 24.2497 46.8057L21.9365 34.5754C21.92 34.4928 21.9761 34.4134 22.0555 34.4002C22.1381 34.387 22.2174 34.4399 22.2306 34.5192L24.5438 46.7495C24.5603 46.8321 24.5042 46.9114 24.4248 46.9246C24.4149 46.9246 24.405 46.9246 24.3951 46.9246L24.3984 46.9279Z" fill="black"/>
<path d="M40.1244 46.9283C40.1244 46.9283 40.1046 46.9283 40.0946 46.9283C40.012 46.9118 39.9592 46.8324 39.9757 46.7498L42.3418 35.0846C42.3583 35.002 42.4376 34.9491 42.5202 34.9657C42.6028 34.9822 42.6557 35.0615 42.6392 35.1441L40.2731 46.8093C40.2599 46.882 40.1971 46.9316 40.1244 46.9316V46.9283Z" fill="black"/>
<path d="M44.6721 42.611C44.6291 42.611 44.5895 42.5945 44.5564 42.5581C44.5003 42.4953 44.5102 42.3995 44.573 42.3466L51.3308 36.4876C51.3936 36.4347 51.4895 36.438 51.5423 36.5041C51.5985 36.5669 51.5886 36.6627 51.5258 36.7156L44.7679 42.5746C44.7382 42.5978 44.7051 42.611 44.6688 42.611H44.6721Z" fill="black"/>
<path d="M19.207 43.687C19.1674 43.687 19.131 43.6737 19.1013 43.644L12.2145 36.7572C12.1551 36.6977 12.1551 36.6019 12.2145 36.5424C12.274 36.4829 12.3698 36.4829 12.4293 36.5424L19.3161 43.4292C19.3756 43.4887 19.3756 43.5845 19.3161 43.644C19.2864 43.6737 19.2467 43.687 19.2103 43.687H19.207Z" fill="black"/>
<path d="M29.5876 41.1758C29.505 41.1758 29.4356 41.1098 29.4356 41.0238V30.2674L26.0583 34.6922C26.0088 34.7583 25.9129 34.7715 25.8468 34.722C25.7807 34.6724 25.7675 34.5766 25.8171 34.5105L29.4654 29.7321C29.505 29.6792 29.5711 29.6593 29.6339 29.6792C29.6967 29.699 29.7363 29.7585 29.7363 29.8213V41.0271C29.7363 41.1098 29.6702 41.1791 29.5843 41.1791L29.5876 41.1758Z" fill="black"/>
<path d="M35.1664 29.3083C33.7123 29.3083 32.5723 31.9157 32.5723 35.2401C32.5723 38.5645 33.709 41.1718 35.1664 41.1718C36.6237 41.1718 37.7572 38.5645 37.7572 35.2401C37.7572 31.9157 36.6204 29.3083 35.1664 29.3083ZM35.1664 40.8744C33.9238 40.8744 32.873 38.2968 32.873 35.2434C32.873 32.19 33.9205 29.6124 35.1664 29.6124C36.4122 29.6124 37.4564 32.19 37.4564 35.2434C37.4564 38.2968 36.4089 40.8744 35.1664 40.8744Z" fill="black"/>
<path d="M21.6059 22.9182C22.0245 21.1362 20.9192 19.3522 19.1372 18.9336C17.3552 18.5149 15.5712 19.6202 15.1525 21.4022C14.7339 23.1843 15.8392 24.9683 17.6212 25.3869C19.4032 25.8055 21.1872 24.7003 21.6059 22.9182Z" fill="#F2CD5F"/>
<path d="M51.8458 58.1817C53.6763 58.1817 55.1603 56.6978 55.1603 54.8672C55.1603 53.0367 53.6763 51.5527 51.8458 51.5527C50.0152 51.5527 48.5312 53.0367 48.5312 54.8672C48.5312 56.6978 50.0152 58.1817 51.8458 58.1817Z" fill="#F2CD5F"/>
<path d="M53.8458 21.8432C53.8458 23.7962 52.1968 25.3791 50.1612 25.3791C48.1256 25.3791 46.4766 23.7962 46.4766 21.8432C46.4766 19.8901 48.1256 18.3105 50.1612 18.3105C52.1968 18.3105 53.8458 19.8934 53.8458 21.8432Z" stroke="black" stroke-width="0.368049" stroke-linecap="round" stroke-linejoin="round"/>
<path d="M10.0587 37.9838C10.0587 39.9368 8.40971 41.5197 6.37408 41.5197C4.33845 41.5197 2.68945 39.9368 2.68945 37.9838C2.68945 36.0308 4.33845 34.4512 6.37408 34.4512C8.40971 34.4512 10.0587 36.0341 10.0587 37.9838Z" stroke="black" stroke-width="0.368049" stroke-linecap="round" stroke-linejoin="round"/>
<path d="M45.3203 50.5263L48.9157 44.9746" stroke="black" stroke-width="0.368049" stroke-linecap="round" stroke-linejoin="round"/>
<path d="M44.1855 45.9004L49.4299 49.6015" stroke="black" stroke-width="0.368049" stroke-linecap="round" stroke-linejoin="round"/>
</svg>
