<svg width="20" height="20" viewBox="0 0 20 20" fill="none" xmlns="http://www.w3.org/2000/svg">
<mask id="mask0_52_8263" style="mask-type:luminance" maskUnits="userSpaceOnUse" x="0" y="0" width="20" height="20">
<path fill-rule="evenodd" clip-rule="evenodd" d="M0 0H20V20H0V0Z" fill="white"/>
</mask>
<g mask="url(#mask0_52_8263)">
</g>
<path d="M10.0426 2.41785C5.85446 2.41785 2.4591 5.81305 2.4591 10.0014C2.4591 14.1897 5.85446 17.5849 10.0426 17.5849C14.231 17.5849 17.6263 14.1897 17.6263 10.0014C17.6214 5.81503 14.229 2.42264 10.0426 2.41785ZM10.0426 16.5015C6.4527 16.5015 3.54251 13.5913 3.54251 10.0014C3.54251 6.41145 6.4527 3.50126 10.0426 3.50126C13.6326 3.50126 16.5429 6.41145 16.5429 10.0014C16.5389 13.5897 13.6311 16.4977 10.0426 16.5015Z" fill="white"/>
<path d="M13.914 8.29889L11.5804 7.942L10.5309 5.70757C10.3778 5.43697 10.0344 5.34175 9.76384 5.49483C9.6749 5.54508 9.60151 5.61864 9.55109 5.70757L8.50173 7.942L6.16779 8.29906C5.87239 8.34336 5.6689 8.61876 5.7132 8.91416C5.73023 9.0269 5.7823 9.13137 5.86214 9.2127L7.56644 10.9598L7.16342 13.4339C7.11532 13.7293 7.31567 14.0077 7.6109 14.0558C7.73075 14.0753 7.85374 14.054 7.96003 13.9951L10.0411 12.8446L12.1221 13.9951C12.3839 14.1398 12.7135 14.0449 12.8583 13.7831C12.917 13.6768 12.9384 13.5538 12.9188 13.4339L12.5158 10.9598L14.2201 9.21253C14.4292 8.99946 14.4261 8.65711 14.2129 8.44783C14.1315 8.36799 14.0271 8.31592 13.9143 8.29906H13.914V8.29889ZM11.5496 10.3991C11.4294 10.5219 11.3747 10.6948 11.4027 10.8646L11.6703 12.5077L10.3034 11.7518C10.1401 11.6615 9.94187 11.6615 9.77871 11.7518L8.41181 12.5077L8.67944 10.8646C8.70737 10.6948 8.65266 10.5221 8.53231 10.3991L7.37286 9.21039L8.9502 8.96921C9.1289 8.94226 9.28214 8.8277 9.35867 8.66405L10.0411 7.21201L10.7236 8.66405C10.8 8.8277 10.9532 8.94226 11.1319 8.96921L12.7094 9.21039L11.5496 10.3991Z" fill="white"/>
</svg>
